<svg width="25" height="25" viewBox="0 0 25 25" fill="none" xmlns="http://www.w3.org/2000/svg">
<path d="M12.9056 0.982422C6.27765 0.982422 0.898438 6.36164 0.898438 12.9896C0.898438 19.6176 6.27765 24.9968 12.9056 24.9968C19.5336 24.9968 24.9128 19.6176 24.9128 12.9896C24.9128 6.36164 19.5336 0.982422 12.9056 0.982422ZM12.9056 18.9932C12.2452 18.9932 11.7049 18.4529 11.7049 17.7925V12.9896C11.7049 12.3292 12.2452 11.7889 12.9056 11.7889C13.566 11.7889 14.1063 12.3292 14.1063 12.9896V17.7925C14.1063 18.4529 13.566 18.9932 12.9056 18.9932ZM14.1063 9.38745H11.7049V6.98601H14.1063V9.38745Z" fill="#2F2E2E"/>
</svg>
