<svg width="30" height="30" viewBox="0 0 30 30" fill="none" xmlns="http://www.w3.org/2000/svg">
<path d="M17.3175 2.92875C18.2237 6.24329 24.3699 7.32957 28.4561 9.46835C28.5461 11.4495 27.6456 13.5545 25.2648 15.2262C25.428 19.1773 22.9121 21.4286 18.8316 22.6781C18.8147 24.5467 18.1167 26.2803 16.1693 27.7605L12.8486 25.7118L15.5164 23.7869C15.4151 22.346 14.9761 20.8433 12.4208 19.999L10.9406 14.7534C7.87313 14.168 8.01947 12.9917 7.77182 11.8885L4.11732 13.0367C1.35076 11.2919 1.19609 8.79294 4.46966 8.34267L4.86308 4.24635L7.74368 4.75966L8.3234 2.66534L11.1151 2.2207L12.2801 4.32177L17.3175 2.92875Z" fill="#2F2E2E"/>
</svg>
