<svg width="29" height="30" viewBox="0 0 29 30" fill="none" xmlns="http://www.w3.org/2000/svg">
<path d="M19.6309 13.5484H17.8039L20.2995 9.22586C20.4906 8.89493 20.5423 8.50165 20.4434 8.13254C20.3445 7.76343 20.1031 7.44872 19.7721 7.25765L16.0288 5.09636C15.6979 4.90529 15.3046 4.85352 14.9355 4.95242C14.5664 5.05131 14.2516 5.29278 14.0606 5.62371L10.4584 11.8626C10.306 12.1263 10.2411 12.4315 10.2729 12.7344C10.3047 13.0372 10.4317 13.3222 10.6356 13.5484H9.54491C9.35384 13.5484 9.1706 13.6243 9.03549 13.7595C8.90038 13.8946 8.82448 14.0778 8.82448 14.2689C8.82448 14.4599 8.90038 14.6432 9.03549 14.7783C9.1706 14.9134 9.35384 14.9893 9.54491 14.9893H19.6309C19.822 14.9893 20.0053 14.9134 20.1404 14.7783C20.2755 14.6432 20.3514 14.4599 20.3514 14.2689C20.3514 14.0778 20.2755 13.8946 20.1404 13.7595C20.0053 13.6243 19.822 13.5484 19.6309 13.5484ZM15.3084 6.34414L19.0517 8.50543L16.1412 13.5484H13.3776L11.7062 12.5831L15.3084 6.34414ZM21.1251 10.6667L20.2937 12.1076H21.0718L24.3137 16.4302H4.86211L8.10405 12.1076H8.68904C8.71845 12.0225 8.75609 11.9404 8.80143 11.8626L9.49304 10.6667H8.10405C7.88036 10.6667 7.65975 10.7188 7.45968 10.8188C7.25961 10.9189 7.08557 11.0641 6.95136 11.2431L3.34921 16.0455C3.16215 16.2949 3.06104 16.5982 3.06104 16.91V23.6345C3.06104 24.0166 3.21284 24.3831 3.48305 24.6533C3.75327 24.9235 4.11976 25.0753 4.5019 25.0753H24.674C25.0561 25.0753 25.4226 24.9235 25.6928 24.6533C25.963 24.3831 26.1148 24.0166 26.1148 23.6345V16.91C26.1148 16.5982 26.0137 16.2949 25.8266 16.0455L22.2245 11.2431C22.0958 11.0711 21.9303 10.9302 21.74 10.8304C21.5498 10.7307 21.3397 10.6748 21.1251 10.6667Z" fill="#2F2E2E"/>
</svg>
